HIERARCHY
ROOT Hips
{
 OFFSET 0.000000 0.000000 0.000000
 CHANNELS 6 Xposition Yposition Zposition Yrotation Xrotation Zrotation
 JOINT Chest
 {
  OFFSET 0.000000 9.585900 0.002600
  CHANNELS 3 Yrotation Xrotation Zrotation
  JOINT Chest2
  {
   OFFSET 0.000000 9.601200 -0.005300
   CHANNELS 3 Yrotation Xrotation Zrotation
   JOINT Chest3
   {
    OFFSET 0.000000 9.561800 0.000000
    CHANNELS 3 Yrotation Xrotation Zrotation
    JOINT Chest4
    {
     OFFSET 0.000000 9.552100 0.000000
     CHANNELS 3 Yrotation Xrotation Zrotation
     JOINT Neck
     {
      OFFSET 0.000000 14.453000 0.000000
      CHANNELS 3 Yrotation Xrotation Zrotation
      JOINT Head
      {
       OFFSET 0.000000 8.936500 -0.011300
       CHANNELS 3 Yrotation Xrotation Zrotation
       End Site
       {
        OFFSET 0.000000 17.073600 -0.006000
       }
      }
     }
     JOINT RightCollar
     {
      OFFSET -2.921100 9.558500 0.000000
      CHANNELS 3 Yrotation Xrotation Zrotation
      JOINT RightShoulder
      {
       OFFSET -13.519700 0.000000 0.000000
       CHANNELS 3 Yrotation Xrotation Zrotation
       JOINT RightElbow
       {
        OFFSET 0.000000 -29.696600 0.000000
        CHANNELS 3 Yrotation Xrotation Zrotation
        JOINT RightWrist
        {
         OFFSET 0.000000 -24.004700 0.000000
         CHANNELS 3 Yrotation Xrotation Zrotation
         End Site
         {
          OFFSET 0.000000 -17.728500 0.000000
         }
        }
       }
      }
     }
     JOINT LeftCollar
     {
      OFFSET 2.921100 9.558500 0.000000
      CHANNELS 3 Yrotation Xrotation Zrotation
      JOINT LeftShoulder
      {
       OFFSET 13.519700 0.000000 0.000000
       CHANNELS 3 Yrotation Xrotation Zrotation
       JOINT LeftElbow
       {
        OFFSET 0.000000 -29.696600 0.000000
        CHANNELS 3 Yrotation Xrotation Zrotation
        JOINT LeftWrist
        {
         OFFSET 0.000000 -24.004700 0.000000
         CHANNELS 3 Yrotation Xrotation Zrotation
         End Site
         {
          OFFSET 0.000000 -17.728500 0.000000
         }
        }
       }
      }
     }
    }
   }
  }
 }
 JOINT RightHip
 {
  OFFSET -7.771700 -0.012900 -0.001300
  CHANNELS 3 Yrotation Xrotation Zrotation
  JOINT RightKnee
  {
   OFFSET 0.000000 -40.869800 0.001200
   CHANNELS 3 Yrotation Xrotation Zrotation
   JOINT RightAnkle
   {
    OFFSET 0.000000 -39.717900 0.002100
    CHANNELS 3 Yrotation Xrotation Zrotation
    JOINT RightToe
    {
     OFFSET 0.000000 -4.965400 11.033500
     CHANNELS 3 Yrotation Xrotation Zrotation
     End Site
     {
      OFFSET 0.000000 -1.423100 5.872300
     }
    }
   }
  }
 }
 JOINT LeftHip
 {
  OFFSET 7.771700 -0.012900 -0.001300
  CHANNELS 3 Yrotation Xrotation Zrotation
  JOINT LeftKnee
  {
   OFFSET 0.000000 -40.869800 0.001200
   CHANNELS 3 Yrotation Xrotation Zrotation
   JOINT LeftAnkle
   {
    OFFSET 0.000000 -39.717900 0.002100
    CHANNELS 3 Yrotation Xrotation Zrotation
    JOINT LeftToe
    {
     OFFSET 0.000000 -4.965400 11.033500
     CHANNELS 3 Yrotation Xrotation Zrotation
     End Site
     {
      OFFSET 0.000000 -1.423100 5.872300
     }
    }
   }
  }
 }
}
MOTION
Frames: 7
Frame Time: 0.008333
-5.773702 57.167825 35.249848 175.355175 -46.425833 0.956642 0.772571 27.020829 1.474717 -0.010221 4.725559 0.122234 0.157375 7.512047 0.227617 0.576580 22.237207 0.763805 0.592114 15.470936 -3.960387 2.546562 -6.927658 -7.603387 8.179947 -2.079747 -0.341192 40.376739 -47.436745 -23.222558 32.189073 -6.479216 -4.100710 14.698358 -5.090511 -56.917124 -11.772976 -1.050926 -3.340984 -10.355025 -32.827973 10.418764 -49.536000 -42.381223 30.509289 -29.340413 -4.572800 23.474010 13.253885 -28.346275 -1.966372 -2.330765 69.349054 1.199434 4.515148 12.351199 5.130900 -0.110457 -7.645569 1.319685 -7.581579 -29.334341 -3.935319 25.517208 69.074604 22.133303 -24.633610 6.371422 -4.431749 -0.082343 -0.918052 -0.044579
-5.785235 57.168293 35.266128 175.342524 -46.460609 0.983407 0.573077 27.013724 1.336234 0.055136 4.736249 0.134545 0.133005 7.506288 0.221674 0.499337 22.231888 0.735986 0.588782 15.414082 -3.941558 2.537335 -7.034369 -7.570030 8.301976 -1.877205 -0.380672 39.562624 -47.131279 -23.063529 32.354106 -8.250100 -4.389759 14.618260 -5.003446 -55.969730 -11.470324 -0.960090 -3.493631 -9.832100 -32.569196 9.687138 -49.842930 -42.586443 31.321471 -29.328311 -4.559275 23.250533 13.283760 -28.309887 -1.994011 -2.314224 69.331564 1.223740 4.516620 12.376457 5.132620 -0.110301 -7.651645 1.328150 -7.622516 -29.336709 -3.992858 25.595981 69.056253 22.193864 -24.517054 6.543487 -4.444490 -0.131848 -0.935263 -0.055227
-5.791195 57.169703 35.280277 175.311000 -46.504917 0.991841 0.483132 27.009414 1.289666 0.067691 4.736049 0.135196 0.112747 7.494643 0.217163 0.435474 22.219118 0.714487 0.574604 15.375825 -3.919027 2.505287 -7.107648 -7.524852 8.394168 -1.662215 -0.412712 38.648908 -46.778021 -22.849624 32.454335 -10.127019 -4.707035 14.585454 -4.999529 -55.013703 -11.191991 -0.860610 -3.634649 -9.405867 -32.351664 9.004512 -50.081667 -42.723172 32.013690 -29.290984 -4.548981 23.102980 13.300545 -28.268967 -1.973862 -2.300127 69.306756 1.238647 4.518370 12.406628 5.134514 -0.110435 -7.658747 1.335622 -7.632775 -29.317295 -4.016490 25.715400 69.048214 22.307018 -24.427625 6.652854 -4.432932 -0.174365 -0.910252 -0.072618
-5.800426 57.169079 35.294458 175.324090 -46.533284 0.992622 0.399570 26.987845 1.248247 0.087980 4.758250 0.131556 0.067150 7.446339 0.218830 0.385407 22.201385 0.699932 0.548637 15.351330 -3.894474 2.449472 -7.156351 -7.470899 8.482053 -1.499007 -0.442048 37.584521 -46.345675 -22.523757 32.500577 -12.055905 -5.056183 14.578669 -5.070635 -54.065282 -10.942837 -0.759980 -3.760559 -9.071470 -32.171497 8.386359 -50.244949 -42.816646 32.567193 -29.226929 -4.547076 23.030577 13.292530 -28.239570 -1.978069 -2.292388 69.291867 1.233417 4.519671 12.423562 5.143263 -0.105043 -7.661535 1.339976 -7.637523 -29.313266 -4.075154 25.757976 69.020815 22.371423 -24.359352 6.778277 -4.458999 -0.173699 -0.909909 -0.070405
-5.811950 57.164309 35.310542 175.361122 -46.527560 0.998313 0.304013 26.927449 1.196124 0.063223 4.731085 0.130862 0.098856 7.487870 0.208509 0.321436 22.137421 0.705100 0.513968 15.335429 -3.872800 2.377862 -7.189382 -7.418655 8.530379 -1.270993 -0.468556 36.517757 -45.933298 -22.204354 32.502848 -13.994710 -5.437565 14.567611 -5.189771 -53.128290 -10.714502 -0.667382 -3.877505 -8.818065 -32.023532 7.846209 -50.334936 -42.890621 32.978343 -29.149577 -4.561973 23.010996 13.275525 -28.245243 -2.005762 -2.275618 69.287566 1.216867 4.519559 12.433988 5.161966 -0.106147 -7.663319 1.345227 -7.626363 -29.344883 -4.160562 25.911333 68.951491 22.563394 -24.396641 6.919713 -4.523176 -0.135642 -0.914432 -0.051044
-5.815813 57.163646 35.321138 175.369046 -46.554858 0.994824 0.273319 26.926654 1.189156 0.032373 4.674581 0.141715 0.113295 7.529318 0.193715 0.286094 22.073300 0.719313 0.471441 15.323719 -3.855016 2.292834 -7.214900 -7.370527 8.577244 -1.057836 -0.497295 35.369822 -45.488604 -21.818489 32.472396 -15.927462 -5.852307 14.524668 -5.313051 -52.193157 -10.506061 -0.589961 -3.986332 -8.630091 -31.902163 7.394902 -50.371205 -42.964916 33.248350 -29.065859 -4.589222 23.016757 13.211068 -28.223719 -1.941785 -2.226514 69.277774 1.166316 4.499351 12.449898 5.197638 -0.103455 -7.670970 1.349402 -7.595034 -29.339452 -4.212350 26.073407 68.915849 22.759941 -24.405306 7.032552 -4.542017 -0.134321 -0.913110 -0.048838
-5.816801 57.163167 35.329637 175.366622 -46.581235 0.996992 0.254384 26.925235 1.187097 0.035767 4.669649 0.142792 0.076071 7.414249 0.220345 0.301000 22.115807 0.704643 0.418484 15.313296 -3.837424 2.188352 -7.238753 -7.318765 8.602556 -0.870782 -0.515001 34.159557 -45.006332 -21.361841 32.411156 -17.846354 -6.304694 14.433024 -5.401475 -51.243730 -10.331109 -0.528069 -4.074531 -8.500357 -31.804421 7.041976 -50.364843 -43.051911 33.375867 -28.978190 -4.626561 23.032490 13.167212 -28.203525 -1.897723 -2.210347 69.271249 1.119468 4.507242 12.468513 5.210807 -0.101596 -7.682653 1.359166 -7.571743 -29.327267 -4.241205 26.236030 68.878804 22.934700 -24.426003 7.127370 -4.562626 -0.114623 -0.895304 -0.039056
